<svg xmlns="http://www.w3.org/2000/svg" width="99.965" height="100" viewBox="0 0 99.965 100">
  <path id="Anesthesiology" d="M109.22,95.63,103.98,93l5.09-5.09,2.63,5.24a1.854,1.854,0,0,1-.34,2.14,1.9,1.9,0,0,1-2.14.34M61.23,53.61l8.46-8.46L83.13,58.59l-2.24,2.24a1.705,1.705,0,0,0,1.21,2.91,1.729,1.729,0,0,0,1.21-.5L85.55,61l2.72,2.72-3.95,3.95a1.7,1.7,0,0,0,0,2.41,1.676,1.676,0,0,0,1.21.49,1.762,1.762,0,0,0,1.21-.49l3.95-3.95,2.72,2.72-2.24,2.24a1.7,1.7,0,0,0,0,2.41,1.676,1.676,0,0,0,1.21.49,1.762,1.762,0,0,0,1.21-.49l2.24-2.24,2.71,2.71-3.95,3.95a1.705,1.705,0,0,0,1.21,2.91,1.729,1.729,0,0,0,1.21-.5l3.95-3.95,6.49,6.49a1.31,1.31,0,0,1,0,1.85l-6.61,6.61a1.316,1.316,0,0,1-1.84,0L61.21,53.61ZM39.48,63.28a6.83,6.83,0,0,1,4.83-11.66,7.707,7.707,0,0,1,.84.08h.1a7.261,7.261,0,0,1,1.03.22c.05.02.1.03.15.05a6.653,6.653,0,0,1,.82.32c.14.07.29.15.43.22.19.1.38.21.55.32a6.59,6.59,0,0,1,.92.77,5.774,5.774,0,0,1,.92,1.18c.07.12.12.24.19.36a7.4,7.4,0,0,1,.46.99c.05.12.07.26.12.38a9.184,9.184,0,0,1,.24,1.16,1.14,1.14,0,0,1,.02.26,5.818,5.818,0,0,1-.05,1.5l-.07.43a6.756,6.756,0,0,1-1.85,3.42,6.983,6.983,0,0,1-9.65,0ZM50.35,47.56,65.26,32.65a10,10,0,0,0,.85,1.45.812.812,0,0,0,.09.1,10.555,10.555,0,0,0,1.06,1.26,12.261,12.261,0,0,0,.94.82c.09.07.15.12.24.19a7.786,7.786,0,0,0,.85.56.693.693,0,0,0,.17.1,9.581,9.581,0,0,0,2.41.97L54.21,55.78a9.766,9.766,0,0,0-.36-1.08c-.02-.05-.03-.1-.05-.15a9.743,9.743,0,0,0-.82-1.57,3.751,3.751,0,0,0-.24-.36,8.879,8.879,0,0,0-1.18-1.43,9.693,9.693,0,0,0-1.26-1.06.812.812,0,0,1-.1-.09,11.2,11.2,0,0,0-1.45-.85l1.61-1.64ZM46.42,38.8a1.274,1.274,0,0,1,0-1.79l6.66-6.66a1.267,1.267,0,0,1,.89-.38,1.249,1.249,0,0,1,.89.38l3.93,3.93-4.22,4.24-4.22,4.22-3.93-3.93Zm-4.63-9.63a7.475,7.475,0,0,0,.74-.51c.09-.07.19-.14.29-.21a10.186,10.186,0,0,0,.85-.77l.05-.05s.03-.03.03-.05c.27-.27.53-.56.77-.85.07-.09.14-.19.21-.27a6.194,6.194,0,0,0,.51-.75c.02-.03.05-.07.07-.1l3.84,3.83-3.62,3.62-3.84-3.84s.07-.02.1-.03ZM30.41,14.36a7.714,7.714,0,0,1,5.45-2.25,7.7,7.7,0,0,1,7.69,7.68,7.5,7.5,0,0,1-.46,2.53,8.287,8.287,0,0,1-.55,1.21c-.07.12-.12.26-.19.36a8.972,8.972,0,0,1-1.04,1.33,6.928,6.928,0,0,1-1.33,1.04,3.125,3.125,0,0,1-.36.19,8.773,8.773,0,0,1-1.2.55,7.347,7.347,0,0,1-2.56.48,7.7,7.7,0,0,1-5.45-13.12Zm39.27,9.05a6.769,6.769,0,0,1,4.83-2,6.8,6.8,0,1,1,.09,13.6h-.12a6.86,6.86,0,0,1-1.2-.1,1.25,1.25,0,0,0-.19-.03,6.266,6.266,0,0,1-1.08-.31,3.418,3.418,0,0,1-.43-.21,6.943,6.943,0,0,1-.77-.39,7.371,7.371,0,0,1-1.13-.89s-.02-.02-.02-.03a5.941,5.941,0,0,1-.73-.91,4.94,4.94,0,0,1-.32-.55,4.1,4.1,0,0,1-.22-.41,6.061,6.061,0,0,1-.32-.84.353.353,0,0,1-.03-.14,6.584,6.584,0,0,1-.22-1.02l-.02-.1a7.448,7.448,0,0,1-.09-.84,6.464,6.464,0,0,1,1.96-4.83h0Zm54.54,82.34-9.46-9.46a5.264,5.264,0,0,0-.02-4.66l-3.6-7.21a4.671,4.671,0,0,0-1.32-3.95L72.08,42.73l4.44-4.44a10.066,10.066,0,0,0,5.21-2.8A10.25,10.25,0,0,0,74.49,18,10.277,10.277,0,0,0,64.24,28.25c0,.19.02.38.03.56l-3.06,3.06-3.93-3.93a4.852,4.852,0,0,0-5.59-.75l-5.02-5.01a11.224,11.224,0,0,0,.27-2.39,11.109,11.109,0,1,0-11.11,11.1,11.9,11.9,0,0,0,2.39-.26l5.01,5.01a4.7,4.7,0,0,0,.75,5.59l3.93,3.93-3.06,3.06a5.4,5.4,0,0,0-.56-.03,10.25,10.25,0,1,0,7.24,17.49,10.257,10.257,0,0,0,2.78-5.19l4.46-4.46L96.5,93.77a4.691,4.691,0,0,0,3.33,1.38,5.822,5.822,0,0,0,.6-.05l7.21,3.6a5.189,5.189,0,0,0,4.67.01l9.48,9.48a1.676,1.676,0,0,0,1.21.49,1.7,1.7,0,0,0,1.19-2.93Z" transform="translate(-24.73 -8.68)" fill="#009fa1"/>
</svg>
