<svg id="Group_7299" data-name="Group 7299" xmlns="http://www.w3.org/2000/svg" xmlns:xlink="http://www.w3.org/1999/xlink" width="40.565" height="53.366" viewBox="0 0 40.565 53.366">
  <defs>
    <clipPath id="clip-path">
      <rect id="Rectangle_1096" data-name="Rectangle 1096" width="40.565" height="53.366" fill="#00a4a3"/>
    </clipPath>
  </defs>
  <g id="Group_7298" data-name="Group 7298" clip-path="url(#clip-path)">
    <path id="Path_8749" data-name="Path 8749" d="M35.689,50.606c-4.423,2.9-15.73-.6-24.2-7.511a31.87,31.87,0,0,1-7-7.811A16.185,16.185,0,0,1,1.8,25.063,15.729,15.729,0,0,1,4.3,18.285c8.652-1.921,14.356-.22,15.336,2.4a5.977,5.977,0,0,1-.62,4.737,4.552,4.552,0,0,1-2.2,1.721,8.917,8.917,0,0,0-2.182,1.361c-2.068,1.834-3.082,5.07-3.009,9.626a.874.874,0,0,0,.874.86h.013a.872.872,0,0,0,.86-.887c-.067-4.023.754-6.817,2.422-8.292a7.34,7.34,0,0,1,1.788-1.094A8.642,8.642,0,0,0,19.4,27.6c.88,2.522,2.735,7.057,5.116,8.552a5.093,5.093,0,0,1-5.056,4.7.874.874,0,0,0,0,1.748A6.83,6.83,0,0,0,26.2,36.765c3.215.774,5.163,1.728,5.557,3.95.513,2.908-1.254,7.9-1.267,7.959a.871.871,0,0,0,.527,1.114.906.906,0,0,0,.294.053.864.864,0,0,0,.82-.58c.08-.22,1.941-5.483,1.341-8.846-.7-3.989-5-4.936-7.579-5.51C24.1,34.51,21.826,29.574,20.7,26a7.666,7.666,0,0,0,.574-5.9c-.027-.074-.074-.14-.107-.22a13.506,13.506,0,0,1,3.949-9.106,12.942,12.942,0,0,1,1.962-1.621,1.259,1.259,0,0,0,.126-.067,13.4,13.4,0,0,1,6.637-2.248v3.422a15.353,15.353,0,0,0-2.728,1.3h-.006c-.006.006-.013.006-.02.013A15.408,15.408,0,0,0,24.735,19.2c-.006.02-.02.04-.027.067a15.04,15.04,0,0,0-.994,5.4.874.874,0,0,0,1.748,0,13.33,13.33,0,0,1,.673-4.17,7.958,7.958,0,0,1,7.359,7.912.874.874,0,1,0,1.748,0A9.723,9.723,0,0,0,26.857,18.8a13.622,13.622,0,0,1,4.41-5.2l.394.694c2.682,4.7,5,8.759,5.917,14.576.96,6.017,2.968,18.545-1.889,21.74ZM10.073,51.633H4.622v-13.1a35.7,35.7,0,0,0,5.451,5.637Zm0-46.45v5.123a.878.878,0,0,0,.507.821.821.821,0,0,0,.921-.147A12.97,12.97,0,0,1,15.45,9.072l.04-.02a.623.623,0,0,0,.173-.093c.04-.027.08-.046.12-.074a.721.721,0,0,0,.114-.133.489.489,0,0,0,.086-.12.592.592,0,0,0,.046-.147.8.8,0,0,0,.046-.173c0-.006.007-.013.007-.027a26.166,26.166,0,0,0-.5-6.53h2.162V7.645c0,.013.006.02.006.033s-.006.02-.006.034a.61.61,0,0,0,.046.16c.013.046.02.093.034.133a.8.8,0,0,0,.106.16,1.012,1.012,0,0,0,.08.107.87.87,0,0,0,.18.12.79.79,0,0,0,.093.06.892.892,0,0,0,.327.066h.067c.66-.053,1.367-.066,2.115-.066.353.006.694,0,1.054.033.013,0,.026-.006.04-.006s.026.006.04.006a1,1,0,0,0,.133-.026.545.545,0,0,0,.147-.034.82.82,0,0,0,.213-.114.445.445,0,0,0,.067-.046.705.705,0,0,0,.153-.187.932.932,0,0,0,.06-.086.9.9,0,0,0,.06-.187c.006-.04.034-.073.034-.113,0-.014-.006-.027-.006-.04s.006-.027.006-.04v-5.1h1.581a14.715,14.715,0,0,0-.22,5.557c0,.006.007.013.007.026a.513.513,0,0,0,.046.134.984.984,0,0,0,.066.167,1.326,1.326,0,0,0,.087.106.75.75,0,0,0,.126.127.676.676,0,0,0,.113.066.492.492,0,0,0,.134.067c-.287.247-.581.5-.86.774a15.207,15.207,0,0,0-4.27,8.385c-2.755-2.175-8.172-2.8-14.616-1.555a24.632,24.632,0,0,0-.16-11.18Zm23.094,8.232-.434-.76a13.628,13.628,0,0,1,2.222-.947.868.868,0,0,0,.614-.834V5.923A.873.873,0,0,0,34.7,5.05a15.175,15.175,0,0,0-8.133,2.361c-.24-.067-.494-.126-.747-.187a12.745,12.745,0,0,1,.52-5.337A.875.875,0,0,0,25.5.747H21.9a.872.872,0,0,0-.874.874V6.7c-.547-.013-1.067-.013-1.567.014V.874A.873.873,0,0,0,18.584,0H14.475a.869.869,0,0,0-.687.334.844.844,0,0,0-.16.74,25.048,25.048,0,0,1,.7,6.531,14.011,14.011,0,0,0-2.535,1.114V4.3a.872.872,0,0,0-.874-.874H3.748a.87.87,0,0,0-.687.334.844.844,0,0,0-.16.74c1.214,5.063,1.234,9.186.06,12.614A17.513,17.513,0,0,0,.08,24.875a17.774,17.774,0,0,0,2.8,11.087V52.492a.872.872,0,0,0,.874.874H10.94a.872.872,0,0,0,.874-.874V45.522c6.031,4.49,13.856,7.838,19.672,7.838a9.311,9.311,0,0,0,5.163-1.3c5.8-3.823,3.749-16.611,2.648-23.482-.974-6.124-3.362-10.313-6.131-15.163Z" transform="translate(0)" fill="#00a4a3"/>
  </g>
</svg>
