<svg xmlns="http://www.w3.org/2000/svg" xmlns:xlink="http://www.w3.org/1999/xlink" width="52.254" height="52.148" viewBox="0 0 52.254 52.148">
  <defs>
    <clipPath id="clip-path">
      <rect id="Rectangle_1049" data-name="Rectangle 1049" width="52.254" height="52.148" fill="#00a4a3"/>
    </clipPath>
  </defs>
  <g id="Group_7241" data-name="Group 7241" transform="translate(0 0)">
    <path id="Path_8434" data-name="Path 8434" d="M1.565,62.991H40.9v2.691H1.565Zm-1.5,4.194H42.4v-5.7H.062Z" transform="translate(-0.024 -30.639)" fill="#00a4a3"/>
    <g id="Group_7240" data-name="Group 7240" transform="translate(0 0)">
      <g id="Group_7239" data-name="Group 7239" clip-path="url(#clip-path)">
        <path id="Path_8435" data-name="Path 8435" d="M69.386,52.148l-26.2,0a2.379,2.379,0,0,1-1.776-.8,2.692,2.692,0,0,1-.689-2.024V41.951c0-2.242,4.9-2.356,5.879-2.356a12.8,12.8,0,0,1,3.444.411c1.654.486,2,1.31,2,1.915v4A20.943,20.943,0,0,0,66.735,26.071,20.892,20.892,0,0,0,52.044,6.244v5.4H40.711V2.924A2.642,2.642,0,0,1,43.118.108,26.793,26.793,0,0,1,63.564,6.962a26,26,0,0,1,8.48,19.119l0,23.443a2.643,2.643,0,0,1-2.655,2.624M42.26,42l0,7.433a1.164,1.164,0,0,0,.292.881.854.854,0,0,0,.635.3l26.2,0A1.1,1.1,0,0,0,70.5,49.523l0-23.443A24.451,24.451,0,0,0,62.523,8.1,24.928,24.928,0,0,0,43.257,1.643,1.1,1.1,0,0,0,42.25,2.822l0,.07V10.1H50.5V4.218l.967.255a22.451,22.451,0,0,1,16.807,21.6A22.491,22.491,0,0,1,51.469,47.691l-.966.254V41.936c-.112-.208-1.035-.678-3.133-.781-2.853-.137-4.832.471-5.11.841m8.242-.074h0v0Z" transform="translate(-19.79 0)" fill="#00a4a3"/>
        <path id="Path_8436" data-name="Path 8436" d="M70.64,51.154a5.381,5.381,0,1,1,5.384-5.381,5.386,5.386,0,0,1-5.384,5.381m0-9.22a3.839,3.839,0,1,0,3.843,3.839,3.843,3.843,0,0,0-3.843-3.839" transform="translate(-31.73 -19.639)" fill="#00a4a3"/>
        <path id="Path_8437" data-name="Path 8437" d="M30.094,51.018l-15.267,0a2.812,2.812,0,0,1,.024-5.61h7.8l5.61-1.283-.058-.3-5.64,1.271H14.85a2.97,2.97,0,0,0-2.784,3.121,3.382,3.382,0,0,0,.439,1.655l.646,1.149L0,51.013v-8.23l15.981-2.667H30.056a5.468,5.468,0,0,1,.038,10.9m-.681-9.056.639,3.331-7.317,1.653H14.85a1.279,1.279,0,0,0-.013,2.527l15.25,0a3.934,3.934,0,0,0-.031-7.819H16.045l-14.5,2.43v5.385l9.151,0a4.9,4.9,0,0,1-.167-1.262A4.509,4.509,0,0,1,14.85,43.55h7.621Z" transform="translate(0 -19.505)" fill="#00a4a3"/>
      </g>
    </g>
  </g>
</svg>
